<?xml version="1.0" standalone="no"?>
<!DOCTYPE svg PUBLIC "-//W3C//DTD SVG 20010904//EN"
 "http://www.w3.org/TR/2001/REC-SVG-20010904/DTD/svg10.dtd">
<svg version="1.0" xmlns="http://www.w3.org/2000/svg"
 width="438.000000pt" height="438.000000pt" viewBox="0 0 438.000000 438.000000"
 preserveAspectRatio="xMidYMid meet">
<metadata>
Created by potrace 1.14, written by Peter Selinger 2001-2017
</metadata>
<g transform="translate(0.000000,438.000000) scale(0.100000,-0.100000)"
fill="#000000" stroke="none">
<path d="M3059 4366 c-2 -2 -26 -7 -54 -10 -27 -4 -63 -9 -80 -12 -16 -2 -44
-6 -62 -8 -17 -3 -42 -11 -55 -20 -45 -29 -78 -28 -110 4 -35 36 -76 44 -148
31 -94 -16 -232 -60 -254 -80 -15 -13 -54 -23 -141 -36 -135 -19 -158 -27
-174 -62 -26 -56 4 -136 55 -149 23 -6 129 5 211 22 29 6 74 -43 113 -123 17
-34 30 -63 30 -65 0 -2 -46 -4 -103 -5 -178 -3 -314 -52 -407 -148 -22 -22
-66 -74 -99 -116 -80 -103 -123 -124 -288 -139 -93 -8 -128 -8 -144 1 -31 16
-157 5 -244 -21 -151 -47 -313 -145 -454 -276 -83 -78 -184 -195 -236 -274
-17 -25 -33 -48 -38 -51 -11 -8 -137 -259 -137 -274 0 -6 -6 -25 -14 -41 -13
-25 -41 -126 -62 -219 -10 -44 -10 -273 -1 -324 19 -101 71 -202 139 -272 59
-60 294 -215 365 -241 63 -23 217 -30 304 -15 43 8 48 7 72 -19 46 -49 75
-120 83 -203 17 -166 47 -246 133 -348 l60 -72 -27 -23 c-43 -37 -79 -89 -101
-148 -37 -100 -34 -170 8 -170 14 0 18 -9 19 -43 3 -65 29 -155 63 -214 91
-158 237 -220 407 -172 113 32 183 94 223 199 l22 56 81 18 c45 10 137 31 206
48 69 16 136 32 150 34 14 3 60 14 103 25 44 11 102 22 130 25 28 3 91 18 141
34 73 22 295 77 390 96 52 10 87 55 132 169 33 84 31 82 72 90 43 7 124 35
139 47 15 12 33 2 33 -19 0 -33 65 -146 112 -194 30 -31 74 -62 111 -79 55
-25 72 -28 142 -26 219 8 357 141 369 357 13 228 -145 448 -334 463 -49 4 -54
6 -67 37 -17 40 -15 142 3 211 14 54 36 94 116 210 78 115 105 199 106 331 0
166 -36 304 -105 394 -37 49 -46 57 -145 145 -102 90 -124 141 -133 318 -6
111 -10 130 -48 207 -51 106 -205 251 -330 312 -100 48 -142 52 -343 36 -115
-10 -150 5 -253 101 -65 61 -80 82 -128 184 -31 63 -56 124 -57 135 -1 16 13
24 81 46 85 28 96 35 127 83 17 27 21 28 70 22 28 -4 56 -7 61 -7 14 -2 129
12 135 16 3 2 33 7 65 10 33 4 76 12 95 19 62 20 80 101 34 155 -23 27 -32 31
-78 31 -29 0 -55 -2 -57 -4z"/>
</g>
</svg>
